<svg width="30" height="30" viewBox="0 0 30 30" fill="none" xmlns="http://www.w3.org/2000/svg">
<path d="M15 24.6876C14.7515 24.6874 14.5131 24.5885 14.3375 24.4126L5.87499 15.9251C4.72982 14.7567 4.08838 13.186 4.08838 11.5501C4.08838 9.91412 4.72982 8.34337 5.87499 7.17507C7.03535 6.01482 8.60907 5.36302 10.25 5.36302C11.8909 5.36302 13.4646 6.01482 14.625 7.17507L15 7.50007L15.35 7.15007C15.9237 6.57007 16.6071 6.11001 17.3604 5.7967C18.1136 5.48337 18.9217 5.32306 19.7375 5.32507C20.5525 5.32142 21.36 5.47977 22.1132 5.79092C22.8664 6.10209 23.5502 6.55982 24.125 7.13757C25.2701 8.30587 25.9116 9.87662 25.9116 11.5126C25.9116 13.1485 25.2701 14.7192 24.125 15.8876L15.6625 24.3751C15.5787 24.469 15.4769 24.545 15.363 24.5987C15.2492 24.6524 15.1257 24.6826 15 24.6876ZM10.2625 7.18757C9.69478 7.18344 9.13187 7.29177 8.60623 7.50631C8.0806 7.72086 7.60267 8.03736 7.19999 8.43757C6.38858 9.25276 5.93305 10.3561 5.93305 11.5063C5.93305 12.6565 6.38858 13.7599 7.19999 14.5751L15 22.4251L22.7875 14.6001C23.1907 14.1973 23.5107 13.7189 23.729 13.1922C23.9472 12.6657 24.0596 12.1013 24.0596 11.5313C24.0596 10.9613 23.9472 10.3969 23.729 9.87034C23.5107 9.34379 23.1907 8.86541 22.7875 8.46257C22.388 8.06161 21.9124 7.7445 21.3886 7.52984C20.8649 7.31519 20.3035 7.20732 19.7375 7.21257C19.1697 7.20844 18.6069 7.31677 18.0812 7.53131C17.5556 7.74586 17.0776 8.06236 16.675 8.46257L15.6625 9.47507C15.4836 9.64476 15.2465 9.73936 15 9.73936C14.7535 9.73936 14.5164 9.64476 14.3375 9.47507L13.325 8.46257C12.9244 8.05785 12.4474 7.73674 11.9216 7.51786C11.3959 7.29899 10.832 7.18671 10.2625 7.18757Z" fill="black"/>
</svg>
